<?xml version="1.0" encoding="utf-8"?>
<!-- Generator: Adobe Illustrator 27.5.0, SVG Export Plug-In . SVG Version: 6.00 Build 0)  -->
<svg version="1.1" xmlns="http://www.w3.org/2000/svg" xmlns:xlink="http://www.w3.org/1999/xlink" x="0px" y="0px"
	 viewBox="0 0 500 500" style="enable-background:new 0 0 500 500;" xml:space="preserve">
<g id="OBJECT">
	<g>
		<g>
			<path style="fill:#F2F2F2;" d="M187.613,207.247h-41.331c-2.33,0-4.219-1.889-4.219-4.219l0,0c0-2.33,1.889-4.219,4.219-4.219
				h41.331c2.33,0,4.219,1.889,4.219,4.219l0,0C191.832,205.358,189.943,207.247,187.613,207.247z"/>
			<path style="fill:#F2F2F2;" d="M171.597,222.121h-40.553c-2.286,0-4.14-1.853-4.14-4.14l0,0c0-2.286,1.853-4.14,4.14-4.14h40.553
				c2.286,0,4.139,1.853,4.139,4.14l0,0C175.737,220.268,173.883,222.121,171.597,222.121z"/>
			<path style="fill:#F2F2F2;" d="M167.059,213.837h-13.381c-0.022,0-0.056,0-0.09-0.011c0.853-0.022,1.628-0.393,2.189-0.954
				c0.595-0.595,0.965-1.415,0.965-2.324c0-1.774-1.403-3.222-3.155-3.289c0.034-0.011,0.067-0.011,0.09-0.011h13.381
				c-0.909,0-1.74,0.37-2.335,0.965c-0.595,0.595-0.965,1.426-0.965,2.335C163.759,212.366,165.241,213.837,167.059,213.837z"/>
		</g>
		<g>
			<path style="fill:#F2F2F2;" d="M137.28,137.15h-32.878c-1.854,0-3.356-1.503-3.356-3.356l0,0c0-1.854,1.503-3.356,3.356-3.356
				h32.878c1.854,0,3.356,1.503,3.356,3.356l0,0C140.636,135.648,139.134,137.15,137.28,137.15z"/>
			<path style="fill:#F2F2F2;" d="M124.539,148.982h-32.26c-1.819,0-3.293-1.474-3.293-3.293l0,0c0-1.819,1.474-3.293,3.293-3.293
				h32.26c1.819,0,3.293,1.474,3.293,3.293l0,0C127.832,147.508,126.358,148.982,124.539,148.982z"/>
			<path style="fill:#F2F2F2;" d="M120.929,142.392h-10.645c-0.018,0-0.045,0-0.071-0.009c0.679-0.018,1.295-0.313,1.741-0.759
				c0.473-0.473,0.768-1.125,0.768-1.848c0-1.411-1.116-2.563-2.509-2.617c0.027-0.009,0.054-0.009,0.071-0.009h10.645
				c-0.723,0-1.384,0.295-1.857,0.768c-0.473,0.473-0.768,1.134-0.768,1.857C118.304,141.222,119.483,142.392,120.929,142.392z"/>
		</g>
		<g>
			<path style="fill:#F2F2F2;" d="M388.648,139.71h37.945c2.139,0,3.873-1.734,3.873-3.873l0,0c0-2.139-1.734-3.873-3.873-3.873
				h-37.945c-2.139,0-3.873,1.734-3.873,3.873l0,0C384.775,137.976,386.509,139.71,388.648,139.71z"/>
			<path style="fill:#F2F2F2;" d="M405.847,153.366h37.232c2.099,0,3.8-1.701,3.8-3.8v0c0-2.099-1.702-3.8-3.8-3.8h-37.232
				c-2.099,0-3.8,1.701-3.8,3.8v0C402.047,151.665,403.748,153.366,405.847,153.366z"/>
			<path style="fill:#F2F2F2;" d="M407.519,145.76h12.285c0.021,0,0.052,0,0.082-0.01c-0.783-0.021-1.494-0.361-2.01-0.876
				c-0.546-0.546-0.886-1.299-0.886-2.133c0-1.628,1.288-2.958,2.896-3.02c-0.031-0.01-0.062-0.01-0.082-0.01h-12.285
				c0.835,0,1.597,0.34,2.144,0.886c0.546,0.546,0.886,1.309,0.886,2.144C410.549,144.41,409.189,145.76,407.519,145.76z"/>
		</g>
		<g>
			<path style="fill:#F2F2F2;" d="M316.478,284.136h35.623c2.008,0,3.636-1.628,3.636-3.636l0,0c0-2.008-1.628-3.636-3.636-3.636
				h-35.623c-2.008,0-3.636,1.628-3.636,3.636l0,0C312.841,282.508,314.469,284.136,316.478,284.136z"/>
			<path style="fill:#F2F2F2;" d="M332.624,296.956h34.953c1.971,0,3.568-1.597,3.568-3.568l0,0c0-1.97-1.597-3.568-3.568-3.568
				h-34.953c-1.97,0-3.568,1.597-3.568,3.568l0,0C329.056,295.359,330.654,296.956,332.624,296.956z"/>
			<path style="fill:#F2F2F2;" d="M334.193,289.816h11.533c0.019,0,0.048,0,0.077-0.01c-0.735-0.019-1.403-0.339-1.887-0.822
				c-0.513-0.513-0.832-1.219-0.832-2.003c0-1.529,1.209-2.777,2.719-2.835c-0.029-0.01-0.058-0.01-0.077-0.01h-11.533
				c0.784,0,1.5,0.319,2.013,0.832c0.513,0.513,0.832,1.229,0.832,2.013C337.038,288.548,335.761,289.816,334.193,289.816z"/>
		</g>
		<g>
			<path style="fill:#F2F2F2;" d="M41.276,300.206h32.826c1.851,0,3.351-1.5,3.351-3.351l0,0c0-1.851-1.5-3.351-3.351-3.351H41.276
				c-1.851,0-3.351,1.5-3.351,3.351l0,0C37.925,298.706,39.425,300.206,41.276,300.206z"/>
			<path style="fill:#F2F2F2;" d="M56.154,312.02h32.209c1.816,0,3.288-1.472,3.288-3.288l0,0c0-1.816-1.472-3.288-3.288-3.288
				H56.154c-1.816,0-3.288,1.472-3.288,3.288l0,0C52.867,310.548,54.339,312.02,56.154,312.02z"/>
			<path style="fill:#F2F2F2;" d="M57.601,305.44h10.628c0.018,0,0.045,0,0.071-0.009c-0.678-0.018-1.293-0.312-1.739-0.758
				c-0.473-0.473-0.767-1.123-0.767-1.846c0-1.409,1.115-2.559,2.505-2.612c-0.027-0.009-0.053-0.009-0.071-0.009H57.601
				c0.722,0,1.382,0.294,1.854,0.767c0.473,0.473,0.767,1.132,0.767,1.854C60.222,304.272,59.045,305.44,57.601,305.44z"/>
		</g>
		<g>
			<path style="fill:#F2F2F2;" d="M469.594,323.155h-32.357c-1.824,0-3.303-1.479-3.303-3.303l0,0c0-1.824,1.479-3.303,3.303-3.303
				h32.357c1.824,0,3.303,1.479,3.303,3.303l0,0C472.897,321.676,471.418,323.155,469.594,323.155z"/>
			<path style="fill:#F2F2F2;" d="M451.569,334.8h-31.748c-1.79,0-3.241-1.451-3.241-3.241l0,0c0-1.79,1.451-3.241,3.241-3.241
				h31.748c1.79,0,3.241,1.451,3.241,3.241l0,0C454.81,333.349,453.359,334.8,451.569,334.8z"/>
			<path style="fill:#F2F2F2;" d="M450.144,328.314h-10.476c-0.017,0-0.044,0-0.07-0.009c0.668-0.018,1.274-0.308,1.714-0.747
				c0.466-0.466,0.756-1.107,0.756-1.819c0-1.389-1.099-2.522-2.47-2.575c0.026-0.009,0.053-0.009,0.07-0.009h10.476
				c-0.712,0-1.362,0.29-1.828,0.756c-0.466,0.466-0.756,1.116-0.756,1.828C447.56,327.163,448.72,328.314,450.144,328.314z"/>
		</g>
		<g>
			<path style="fill:#F2F2F2;" d="M190.981,101.382h38.266c2.157,0,3.906-1.749,3.906-3.906l0,0c0-2.157-1.749-3.906-3.906-3.906
				h-38.266c-2.157,0-3.906,1.749-3.906,3.906l0,0C187.075,99.633,188.824,101.382,190.981,101.382z"/>
			<path style="fill:#F2F2F2;" d="M208.326,115.153h37.546c2.117,0,3.833-1.716,3.833-3.833l0,0c0-2.117-1.716-3.833-3.833-3.833
				h-37.546c-2.117,0-3.833,1.716-3.833,3.833l0,0C204.493,113.438,206.209,115.153,208.326,115.153z"/>
			<path style="fill:#F2F2F2;" d="M210.011,107.483H222.4c0.021,0,0.052,0,0.083-0.01c-0.79-0.021-1.507-0.364-2.027-0.883
				c-0.551-0.551-0.894-1.31-0.894-2.152c0-1.642,1.299-2.983,2.921-3.045c-0.031-0.01-0.062-0.01-0.083-0.01h-12.389
				c0.842,0,1.611,0.343,2.162,0.894c0.551,0.551,0.894,1.32,0.894,2.162C213.067,106.121,211.695,107.483,210.011,107.483z"/>
		</g>
	</g>
	<ellipse style="fill:#DFDFDF;" cx="251.373" cy="401.627" rx="196.8" ry="11.919"/>
	<g>
		<g>
			<g>
				<path style="fill:#D1B619;" d="M391.192,362.665c-8.34,37.215-46.364,38.927-46.364,38.927h-19.464L391.192,362.665z"/>
				<path style="fill:#F7DE24;" d="M391.192,362.665l-65.828,38.927C345.732,351.678,391.192,362.665,391.192,362.665z"/>
			</g>
			<g>
				<path style="fill:#F7DE24;" d="M318.902,401.592c0,0-9.686-48.235,41.258-63.06c0,0,8.217,32.464-22.939,63.06H318.902z"/>
				<path style="fill:#D1B619;" d="M337.223,401.592h-14.38l37.32-63.065C360.164,338.527,368.378,370.995,337.223,401.592z"/>
			</g>
		</g>
		<g>
			<g>
				<path style="fill:#D1B619;" d="M258.975,177.366h-12.196c0,0-23.826-1.073-29.052-24.392L258.975,177.366z"/>
				<path style="fill:#F7DE24;" d="M258.975,177.366l-41.248-24.392C217.727,152.974,246.213,146.09,258.975,177.366z"/>
			</g>
			<g>
				<path style="fill:#D1B619;" d="M258.975,177.366h-7.431c-19.521-19.173-14.368-39.517-14.368-39.517L258.975,177.366z"/>
				<path style="fill:#F7DE24;" d="M263.022,177.366h-4.048l-21.799-39.517C269.097,147.143,263.022,177.366,263.022,177.366z"/>
			</g>
		</g>
	</g>
	<g>
		<g>
			<path style="fill:#6538A5;" d="M319.232,401.91H183.515c-7.204,0-13.043-5.84-13.043-13.043V190.409
				c0-7.204,5.84-13.043,13.043-13.043h135.717c7.204,0,13.043,5.84,13.043,13.043v198.458
				C332.275,396.07,326.436,401.91,319.232,401.91z"/>
			<path style="fill:#462676;" d="M332.274,190.406v198.46c0,7.206-5.84,13.046-13.046,13.046h-135.71
				c-2.563,0-4.958-0.735-6.975-2.017l149.533-220.581C329.795,181.604,332.274,185.721,332.274,190.406z"/>
		</g>
		<path style="fill:#B083FA;" d="M310.151,390.243H192.596c-6.201,0-11.227-5.027-11.227-11.227V200.26
			c0-6.201,5.027-11.227,11.227-11.227h117.556c6.201,0,11.227,5.027,11.227,11.227v178.755
			C321.378,385.216,316.352,390.243,310.151,390.243z"/>
		<g>
			<path style="fill:#BC99FF;" d="M272.215,186.497h-41.683c-3.449,0-6.419-2.435-7.096-5.817l-0.648-3.242h57.171l-0.648,3.242
				C278.634,184.063,275.664,186.497,272.215,186.497z"/>
			<path style="fill:#BC99FF;" d="M267.151,177.439h-31.555v-3.322c0-4.419,3.582-8.002,8.002-8.002h15.551
				c4.419,0,8.002,3.583,8.002,8.002V177.439z"/>
			<circle style="fill:#FFFFFF;" cx="251.373" cy="173.815" r="3.623"/>
		</g>
		<g>
			<path style="fill:#8D53E4;" d="M308.335,221.432H194.412c-4.012,0-7.265-3.252-7.265-7.265v-9.906
				c0-4.012,3.253-7.265,7.265-7.265h113.923c4.012,0,7.265,3.253,7.265,7.265v9.906C315.6,218.179,312.347,221.432,308.335,221.432
				z"/>
			<path style="fill:#8D53E4;" d="M308.335,253.601H194.412c-4.012,0-7.265-3.252-7.265-7.265v-9.906
				c0-4.012,3.253-7.265,7.265-7.265h113.923c4.012,0,7.265,3.253,7.265,7.265v9.906C315.6,250.349,312.347,253.601,308.335,253.601
				z"/>
			<path style="fill:#8D53E4;" d="M308.335,285.771H194.412c-4.012,0-7.265-3.253-7.265-7.265V268.6
				c0-4.012,3.253-7.265,7.265-7.265h113.923c4.012,0,7.265,3.253,7.265,7.265v9.906C315.6,282.518,312.347,285.771,308.335,285.771
				z"/>
			<path style="fill:#8D53E4;" d="M308.335,317.941H194.412c-4.012,0-7.265-3.253-7.265-7.265v-9.906
				c0-4.012,3.253-7.265,7.265-7.265h113.923c4.012,0,7.265,3.252,7.265,7.265v9.906C315.6,314.688,312.347,317.941,308.335,317.941
				z"/>
			<path style="fill:#8D53E4;" d="M308.335,350.11H194.412c-4.012,0-7.265-3.253-7.265-7.265v-9.906
				c0-4.012,3.253-7.265,7.265-7.265h113.923c4.012,0,7.265,3.253,7.265,7.265v9.906C315.6,346.858,312.347,350.11,308.335,350.11z"
				/>
			<path style="fill:#8D53E4;" d="M308.335,382.28H194.412c-4.012,0-7.265-3.253-7.265-7.265v-9.906
				c0-4.012,3.253-7.265,7.265-7.265h113.923c4.012,0,7.265,3.253,7.265,7.265v9.906C315.6,379.027,312.347,382.28,308.335,382.28z"
				/>
			<g>
				<g>
					<g>
						<path style="fill:#FFFFFF;" d="M306.158,203.792h-88.621c-0.691,0-1.251-0.56-1.251-1.251l0,0c0-0.691,0.56-1.251,1.251-1.251
							h88.621c0.691,0,1.251,0.56,1.251,1.251l0,0C307.409,203.231,306.849,203.792,306.158,203.792z"/>
						<path style="fill:#FFFFFF;" d="M306.158,210.465h-88.621c-0.691,0-1.251-0.56-1.251-1.251l0,0c0-0.691,0.56-1.251,1.251-1.251
							h88.621c0.691,0,1.251,0.56,1.251,1.251l0,0C307.409,209.905,306.849,210.465,306.158,210.465z"/>
						<path style="fill:#FFFFFF;" d="M271.645,217.139h-54.108c-0.691,0-1.251-0.56-1.251-1.251l0,0c0-0.691,0.56-1.251,1.251-1.251
							h54.108c0.691,0,1.251,0.56,1.251,1.251l0,0C272.896,216.579,272.336,217.139,271.645,217.139z"/>
					</g>
					<g>
						<path style="fill:#FFFFFF;" d="M209.512,218.395h-11.831c-1.801,0-3.266-1.465-3.266-3.266v-11.831
							c0-1.8,1.465-3.266,3.266-3.266h11.831c1.801,0,3.266,1.465,3.266,3.266v11.831
							C212.778,216.93,211.313,218.395,209.512,218.395z M197.681,202.545c-0.416,0-0.754,0.338-0.754,0.753v11.831
							c0,0.415,0.338,0.754,0.754,0.754h11.831c0.415,0,0.754-0.338,0.754-0.754v-11.831c0-0.415-0.338-0.753-0.754-0.753H197.681z"
							/>
					</g>
				</g>
				<g>
					<g>
						<path style="fill:#FFFFFF;" d="M306.158,235.961h-88.621c-0.691,0-1.251-0.56-1.251-1.251l0,0c0-0.691,0.56-1.251,1.251-1.251
							h88.621c0.691,0,1.251,0.56,1.251,1.251l0,0C307.409,235.401,306.849,235.961,306.158,235.961z"/>
						<path style="fill:#FFFFFF;" d="M306.158,242.635h-88.621c-0.691,0-1.251-0.56-1.251-1.251l0,0c0-0.691,0.56-1.251,1.251-1.251
							h88.621c0.691,0,1.251,0.56,1.251,1.251l0,0C307.409,242.075,306.849,242.635,306.158,242.635z"/>
						<path style="fill:#FFFFFF;" d="M271.645,249.309h-54.108c-0.691,0-1.251-0.56-1.251-1.251l0,0c0-0.691,0.56-1.251,1.251-1.251
							h54.108c0.691,0,1.251,0.56,1.251,1.251l0,0C272.896,248.748,272.336,249.309,271.645,249.309z"/>
					</g>
					<g>
						<path style="fill:#FFFFFF;" d="M209.512,250.565h-11.831c-1.801,0-3.266-1.465-3.266-3.266v-11.831
							c0-1.801,1.465-3.266,3.266-3.266h11.831c1.801,0,3.266,1.465,3.266,3.266v11.831
							C212.778,249.1,211.313,250.565,209.512,250.565z M197.681,234.714c-0.416,0-0.754,0.338-0.754,0.754v11.831
							c0,0.415,0.338,0.754,0.754,0.754h11.831c0.415,0,0.754-0.338,0.754-0.754v-11.831c0-0.415-0.338-0.754-0.754-0.754H197.681z"
							/>
					</g>
				</g>
				<g>
					<g>
						<path style="fill:#FFFFFF;" d="M306.158,268.131h-88.621c-0.691,0-1.251-0.56-1.251-1.251l0,0c0-0.691,0.56-1.251,1.251-1.251
							h88.621c0.691,0,1.251,0.56,1.251,1.251l0,0C307.409,267.57,306.849,268.131,306.158,268.131z"/>
						<path style="fill:#FFFFFF;" d="M306.158,274.805h-88.621c-0.691,0-1.251-0.56-1.251-1.251l0,0c0-0.691,0.56-1.251,1.251-1.251
							h88.621c0.691,0,1.251,0.56,1.251,1.251l0,0C307.409,274.244,306.849,274.805,306.158,274.805z"/>
						<path style="fill:#FFFFFF;" d="M271.645,281.478h-54.108c-0.691,0-1.251-0.56-1.251-1.251l0,0c0-0.691,0.56-1.251,1.251-1.251
							h54.108c0.691,0,1.251,0.56,1.251,1.251l0,0C272.896,280.918,272.336,281.478,271.645,281.478z"/>
					</g>
					<g>
						<path style="fill:#FFFFFF;" d="M209.512,282.734h-11.831c-1.801,0-3.266-1.465-3.266-3.266v-11.831
							c0-1.801,1.465-3.266,3.266-3.266h11.831c1.801,0,3.266,1.465,3.266,3.266v11.831
							C212.778,281.27,211.313,282.734,209.512,282.734z M197.681,266.884c-0.416,0-0.754,0.338-0.754,0.753v11.831
							c0,0.415,0.338,0.753,0.754,0.753h11.831c0.415,0,0.754-0.338,0.754-0.753v-11.831c0-0.415-0.338-0.753-0.754-0.753H197.681z"
							/>
					</g>
				</g>
				<g>
					<g>
						<path style="fill:#FFFFFF;" d="M306.158,300.3h-88.621c-0.691,0-1.251-0.56-1.251-1.251l0,0c0-0.691,0.56-1.251,1.251-1.251
							h88.621c0.691,0,1.251,0.56,1.251,1.251l0,0C307.409,299.74,306.849,300.3,306.158,300.3z"/>
						<path style="fill:#FFFFFF;" d="M306.158,306.974h-88.621c-0.691,0-1.251-0.56-1.251-1.251l0,0c0-0.691,0.56-1.251,1.251-1.251
							h88.621c0.691,0,1.251,0.56,1.251,1.251l0,0C307.409,306.414,306.849,306.974,306.158,306.974z"/>
						<path style="fill:#FFFFFF;" d="M271.645,313.648h-54.108c-0.691,0-1.251-0.56-1.251-1.251v0c0-0.691,0.56-1.251,1.251-1.251
							h54.108c0.691,0,1.251,0.56,1.251,1.251v0C272.896,313.088,272.336,313.648,271.645,313.648z"/>
					</g>
					<g>
						<path style="fill:#FFFFFF;" d="M209.512,314.904h-11.831c-1.801,0-3.266-1.465-3.266-3.266v-11.831
							c0-1.801,1.465-3.266,3.266-3.266h11.831c1.801,0,3.266,1.465,3.266,3.266v11.831
							C212.778,313.439,211.313,314.904,209.512,314.904z M197.681,299.054c-0.416,0-0.754,0.338-0.754,0.753v11.831
							c0,0.415,0.338,0.753,0.754,0.753h11.831c0.415,0,0.754-0.338,0.754-0.753v-11.831c0-0.415-0.338-0.753-0.754-0.753H197.681z"
							/>
					</g>
				</g>
				<g>
					<g>
						<path style="fill:#FFFFFF;" d="M306.158,332.47h-88.621c-0.691,0-1.251-0.56-1.251-1.251l0,0c0-0.691,0.56-1.251,1.251-1.251
							h88.621c0.691,0,1.251,0.56,1.251,1.251l0,0C307.409,331.91,306.849,332.47,306.158,332.47z"/>
						<path style="fill:#FFFFFF;" d="M306.158,339.144h-88.621c-0.691,0-1.251-0.56-1.251-1.251l0,0c0-0.691,0.56-1.251,1.251-1.251
							h88.621c0.691,0,1.251,0.56,1.251,1.251l0,0C307.409,338.583,306.849,339.144,306.158,339.144z"/>
						<path style="fill:#FFFFFF;" d="M271.645,345.818h-54.108c-0.691,0-1.251-0.56-1.251-1.251l0,0c0-0.691,0.56-1.251,1.251-1.251
							h54.108c0.691,0,1.251,0.56,1.251,1.251l0,0C272.896,345.257,272.336,345.818,271.645,345.818z"/>
					</g>
					<g>
						<path style="fill:#FFFFFF;" d="M209.512,347.074h-11.831c-1.801,0-3.266-1.465-3.266-3.266v-11.831
							c0-1.801,1.465-3.266,3.266-3.266h11.831c1.801,0,3.266,1.465,3.266,3.266v11.831
							C212.778,345.609,211.313,347.074,209.512,347.074z M197.681,331.224c-0.416,0-0.754,0.338-0.754,0.753v11.831
							c0,0.415,0.338,0.753,0.754,0.753h11.831c0.415,0,0.754-0.338,0.754-0.753v-11.831c0-0.415-0.338-0.753-0.754-0.753H197.681z"
							/>
					</g>
				</g>
				<g>
					<g>
						<path style="fill:#FFFFFF;" d="M306.158,364.64h-88.621c-0.691,0-1.251-0.56-1.251-1.251l0,0c0-0.691,0.56-1.251,1.251-1.251
							h88.621c0.691,0,1.251,0.56,1.251,1.251l0,0C307.409,364.079,306.849,364.64,306.158,364.64z"/>
						<path style="fill:#FFFFFF;" d="M306.158,371.313h-88.621c-0.691,0-1.251-0.56-1.251-1.251l0,0c0-0.691,0.56-1.251,1.251-1.251
							h88.621c0.691,0,1.251,0.56,1.251,1.251l0,0C307.409,370.753,306.849,371.313,306.158,371.313z"/>
						<path style="fill:#FFFFFF;" d="M271.645,377.987h-54.108c-0.691,0-1.251-0.56-1.251-1.251l0,0c0-0.691,0.56-1.251,1.251-1.251
							h54.108c0.691,0,1.251,0.56,1.251,1.251l0,0C272.896,377.427,272.336,377.987,271.645,377.987z"/>
					</g>
					<g>
						<path style="fill:#FFFFFF;" d="M209.512,379.243h-11.831c-1.801,0-3.266-1.465-3.266-3.265v-11.831
							c0-1.801,1.465-3.266,3.266-3.266h11.831c1.801,0,3.266,1.465,3.266,3.266v11.831
							C212.778,377.779,211.313,379.243,209.512,379.243z M197.681,363.393c-0.416,0-0.754,0.338-0.754,0.753v11.831
							c0,0.415,0.338,0.753,0.754,0.753h11.831c0.415,0,0.754-0.338,0.754-0.753v-11.831c0-0.415-0.338-0.753-0.754-0.753H197.681z"
							/>
					</g>
				</g>
			</g>
			<g>
				<path style="fill:#FF4B67;" d="M205.337,280.572c-0.068,0-0.136-0.003-0.204-0.01c-0.57-0.057-1.091-0.343-1.444-0.793
					l-5.653-7.223c-0.713-0.911-0.552-2.227,0.359-2.939c0.91-0.712,2.227-0.551,2.939,0.358l4.301,5.495l12.679-10.92
					c0.875-0.755,2.198-0.656,2.952,0.22c0.755,0.877,0.656,2.198-0.22,2.953l-14.341,12.352
					C206.321,280.393,205.836,280.572,205.337,280.572z"/>
			</g>
			<g>
				<path style="fill:#FF4B67;" d="M205.337,248.606c-0.068,0-0.136-0.003-0.204-0.01c-0.57-0.056-1.091-0.343-1.444-0.793
					l-5.653-7.223c-0.713-0.911-0.552-2.227,0.359-2.939c0.91-0.712,2.227-0.551,2.939,0.358l4.301,5.495l12.679-10.92
					c0.875-0.755,2.198-0.656,2.952,0.22c0.755,0.877,0.656,2.198-0.22,2.953l-14.341,12.352
					C206.321,248.428,205.836,248.606,205.337,248.606z"/>
			</g>
			<g>
				<path style="fill:#FF4B67;" d="M205.337,216.805c-0.068,0-0.136-0.003-0.204-0.01c-0.57-0.057-1.091-0.343-1.444-0.793
					l-5.653-7.223c-0.713-0.911-0.552-2.227,0.359-2.939c0.91-0.712,2.227-0.551,2.939,0.358l4.301,5.495l12.679-10.92
					c0.875-0.755,2.198-0.656,2.952,0.22c0.755,0.877,0.656,2.198-0.22,2.953l-14.341,12.352
					C206.321,216.626,205.836,216.805,205.337,216.805z"/>
			</g>
		</g>
		<path style="opacity:0.2;fill:#AEAF91;" d="M321.382,200.258v178.755c0,6.208-5.031,11.229-11.229,11.229H192.594
			c-2.899,0-5.546-1.103-7.542-2.91l132.528-195.488C319.911,193.893,321.382,196.908,321.382,200.258z"/>
	</g>
	<g>
		<g>
			<g>
				<g>
					<path style="fill:#FF4B67;" d="M92.551,380.081l-6.368-0.528c-1.125-0.093-2.123,0.717-2.263,1.837l-1.045,10.579
						c-0.153,1.227,0.093,2.471,0.702,3.547l3.707,3.063c1.01,0.835,2.279,1.291,3.59,1.291h4.028c2.64,0,3.931-3.285,1.946-5.026
						c-1.276-1.119-2.911-2.261-4.978-3.237c0,0,0.242-0.807,1.328-1.926C93.198,389.681,90.217,385.035,92.551,380.081z"/>
					<path style="fill:#452774;" d="M137.434,353.761c0,0,2.005,17.523-1.736,34.58c-0.861,3.924-4.541,6.611-8.537,6.195
						c-0.074-0.008-0.149-0.016-0.224-0.024c-4.417-0.498-7.52-4.61-6.896-9.011c0.944-6.658,1.84-16.447,0.129-22.396
						c0,0-16.737,1.132-16.048-12.858L137.434,353.761z"/>
					<path style="fill:#452774;" d="M126.589,394.532c-5.653-0.682-18.633-1.78-33.146-3.289c0,0-3.865-6.018-0.242-13.222
						c0,0,22.126,1.395,33.888,2.905c3.821,0.49,6.839,3.741,6.721,7.591c-0.006,0.209-0.022,0.42-0.047,0.633
						C133.354,392.598,130.036,394.948,126.589,394.532z"/>
				</g>
				<g>
					<path style="fill:#FF4B67;" d="M116.223,378.71l-8.027,6.097c0,0,8.913,11.454,17.234,16.772
						c1.701,1.087,3.992,0.338,4.689-1.557c1.091-2.965,1.408-7.186-4.338-9.052c0,0-2.467-2.036-1.761-5.285
						C124.02,385.686,116.987,384.157,116.223,378.71z"/>
					<path style="fill:#6538A5;" d="M104.121,350.247c0,0,21.18,0.256,45.222,4.651c2.891,0.528,5.132,2.954,5.287,5.888
						c0.003,0.057,0.006,0.113,0.007,0.171c0.128,3.921-3.662,8.084-7.561,7.65c-7.649-0.851-15.661-1.209-33.741-1.996
						c-6.25-0.272-10.424-5.326-9.915-11.633C103.52,353.756,103.826,351.715,104.121,350.247z"/>
					<path style="fill:#6538A5;" d="M152.096,367.56c-4.308,3.723-14.151,11.695-26.485,19.491c0,0-9.111-2.257-10.723-10.159
						c0,0,18.795-14.854,28.968-20.946c3.305-1.979,7.687-1.293,9.977,1.804c0.124,0.168,0.243,0.344,0.355,0.526
						C156.002,361.237,155.362,364.738,152.096,367.56z"/>
				</g>
			</g>
			<g>
				<g>
					<path style="fill:#EBA9B5;" d="M125.117,318.765c2.367-3.182,6.317-5.075,10.471-4.911c3.308,0.135,6.555,0.167,9.589,0.139
						c1.225-0.012,2.405-0.035,3.549-0.061c2.001-0.04,3.883-0.113,5.6-0.192c0.481-0.023,0.962-0.046,1.421-0.073
						c0.689-0.035,1.342-0.073,1.966-0.109c1.24-0.078,2.322-0.156,3.232-0.219c1.125-0.082,2.109,0.274,2.859,0.897
						c0.102,0.084,0.189,0.17,0.284,0.262c0.079,0.079,0.159,0.158,0.232,0.245c0.357,0.429,0.619,0.924,0.783,1.456
						c0,0,0.008,0.007,0.009,0.021c0.372,1.22,0.167,2.595-0.819,3.703l-0.039,0.047c-0.151,0.165-0.31,0.31-0.493,0.435
						c-0.282,0.228-0.597,0.401-0.939,0.527c-11.429,4.3-39.747,2.406-39.747,2.406c0.056-0.258,0.111-0.515,0.182-0.76
						c0.287-1.029,0.703-1.99,1.227-2.875l0.007-0.008c0.025-0.046,0.056-0.099,0.088-0.138c0.087-0.152,0.188-0.306,0.291-0.445
						C124.943,318.991,125.026,318.875,125.117,318.765z"/>
					<path style="fill:#EBA9B5;" d="M162.38,281.948c-1.174,4.026-0.562,9.321-0.562,9.321s-2.073,17-4.399,23.672
						c0,0,1.696,3.757,7.532,3.982c0,0,4.466-12.51,4.741-26.603c0.827-0.738,1.447-1.506,1.901-2.263
						c1.606-2.638,1.489-5.932,0.126-8.695c-0.09-0.186-0.175-0.353-0.27-0.518c-1.161-2.06-3.39-2.775-5.384-2.333
						C164.411,278.886,162.932,280.065,162.38,281.948z"/>
				</g>
				<path style="fill:#F5DA23;" d="M128.833,309.557c-1.397-0.38-2.927-0.682-4.586-0.857h0l-0.001,0c0,0,0,0,0,0h0
					c-1.659-0.175-3.218-0.199-4.664-0.118c-6.431,0.359-11.644,5.346-12.32,11.752l-3.155,29.914l31.166,3.288l3.155-29.914
					C139.105,317.215,135.048,311.25,128.833,309.557z"/>
				<g>
					<path style="fill:#FBCED1;" d="M130.516,301.808l-0.801,7.596c-0.204,1.933-1.941,3.338-3.874,3.134
						c-1.933-0.204-3.332-1.94-3.128-3.873l0.801-7.596L130.516,301.808z"/>
					<path style="fill:#EBA9B5;" d="M130.516,301.808l-0.61,5.78c-1.149,0.173-2.342,0.204-3.551,0.076
						c-1.209-0.128-2.591-0.85-3.283-2.407l0.442-4.187L130.516,301.808z"/>
				</g>
				<g>
					<g>
						<g>
							<path style="fill:#FF4B67;" d="M167.505,344.405c-0.073,0-0.147-0.004-0.221-0.011c-0.616-0.061-1.18-0.37-1.561-0.857
								l-6.11-7.807c-0.77-0.985-0.597-2.407,0.388-3.177c0.984-0.77,2.407-0.596,3.176,0.387l4.648,5.939l13.704-11.803
								c0.946-0.816,2.376-0.709,3.191,0.238c0.816,0.948,0.709,2.376-0.238,3.192l-15.501,13.351
								C168.569,344.212,168.045,344.405,167.505,344.405z"/>
						</g>
					</g>
					<path style="fill:#FBCED1;" d="M113.773,319.807c3.933,0.509,7.516,3.029,9.404,6.733c1.5,2.951,3.06,5.8,4.567,8.432
						c0.609,1.062,1.206,2.081,1.789,3.066c1.014,1.726,1.998,3.332,2.906,4.79c0.255,0.408,0.51,0.817,0.759,1.204
						c0.367,0.584,0.72,1.135,1.057,1.661c0.675,1.044,1.272,1.949,1.771,2.712c0.621,0.941,0.792,1.974,0.615,2.932
						c-0.024,0.13-0.056,0.248-0.09,0.376c-0.03,0.108-0.061,0.216-0.101,0.322c-0.199,0.521-0.503,0.991-0.887,1.395
						c0,0-0.002,0.01-0.014,0.018c-0.882,0.921-2.182,1.415-3.63,1.096l-0.06-0.011c-0.218-0.051-0.422-0.119-0.621-0.218
						c-0.337-0.134-0.642-0.325-0.919-0.562c-9.339-7.867-21.534-33.495-21.534-33.495c0.252-0.077,0.504-0.155,0.752-0.212
						c1.038-0.253,2.08-0.36,3.108-0.335l0.01,0.002c0.052-0.001,0.114,0,0.163,0.01c0.175,0.001,0.359,0.014,0.53,0.036
						C113.492,319.765,113.634,319.781,113.773,319.807z"/>
					<path style="fill:#FBCED1;" d="M164.109,334.309c-4.086,0.945-8.406,4.067-8.406,4.067s-15.843,6.504-22.8,7.737
						c0,0-2.448,3.316,0.21,8.517c0,0,13.097-2.221,25.524-8.872c1.048,0.361,2.021,0.526,2.904,0.552
						c3.086,0.111,5.903-1.601,7.646-4.141c0.119-0.17,0.223-0.326,0.32-0.489c1.229-2.02,0.763-4.314-0.597-5.838
						C167.773,334.584,166.022,333.87,164.109,334.309z"/>
					<path style="fill:#F5DA23;" d="M113.605,334.747l13.36-6.928l-5.488-9.134c-2.056-3.423-6.484-4.552-9.929-2.533v0
						c-3.386,1.985-4.591,6.296-2.725,9.749L113.605,334.747z"/>
				</g>
			</g>
			<g>
				<path style="fill:#FBCED1;" d="M129.744,305.835L129.744,305.835c-7.742-0.55-13.572-7.271-13.022-15.013l1.212-17.064
					l28.035,1.991l-1.212,17.065C144.207,300.555,137.486,306.385,129.744,305.835z"/>
				<path style="fill:#362255;" d="M112.388,275.892l31.098,2.209c5.271,0.374,10.144-3.271,10.881-8.503
					c0.373-2.645-0.291-5.717-3.122-8.981c0,0-1.702,6.388-8.135,5.931l-29.908-2.124L112.388,275.892z"/>
				<path style="fill:#FBCED1;" d="M112.029,292.403l4.558,0.324l0.648-9.117l-4.559-0.324c-2.518-0.179-4.703,1.717-4.882,4.235
					l0,0C107.615,290.038,109.511,292.224,112.029,292.403z"/>
				
					<rect x="112.121" y="276.074" transform="matrix(0.9975 0.0709 -0.0709 0.9975 20.111 -7.4321)" style="fill:#B083FA;" width="5.381" height="7.354"/>
			</g>
		</g>
		<g>
			<g>
				<g>
					<path style="fill:#EBA9B5;" d="M425.643,350.547l9.446,5.267c0,0-0.145,7.227-5.719,9.321l-9.41-5.809
						C419.96,359.327,425.63,354.826,425.643,350.547z"/>
					<path style="fill:#452774;" d="M392.322,346.082c4.727,3.174,15.462,9.898,28.648,16.145c0,0,7.108-4.347,7.754-12.385
						c0,0-18.791-11.468-29.626-16.285c-3.52-1.565-7.787-0.354-9.686,2.997c-0.103,0.182-0.2,0.37-0.289,0.565
						C387.681,340.278,388.739,343.676,392.322,346.082z"/>
					<path style="fill:#452774;" d="M428.801,294.488c0.153,0.219-1.859,13.899-12.944,16.063c0,0-5.871,22.814-10.506,32.464
						c-2.139,4.454-7.518,6.456-11.94,4.252c-0.066-0.033-0.132-0.066-0.198-0.1c-3.665-1.893-5.448-6.148-4.431-10.146
						c1.926-7.574,5.589-27.592,8.63-43.533l31.373,1.022C428.795,294.507,428.795,294.48,428.801,294.488z"/>
					<path style="fill:#6538A5;" d="M434.935,355.725l8.847,4.922c0,0-5.107,12.25-11.744,19.56
						c-1.357,1.495-3.764,1.372-4.933-0.275c-1.829-2.577-3.24-6.566,1.817-9.872c0,0,1.981-1.975,0.449-4.925
						C429.37,365.136,435.624,361.182,434.935,355.725z"/>
				</g>
				<g>
					<path style="fill:#FBCED1;" d="M410.182,378.863l-1.161,10.753c0,0-6.71,2.687-10.815-1.626l1.674-10.931
						C399.88,377.059,406.238,380.522,410.182,378.863z"/>
					<path style="fill:#6538A5;" d="M409.042,389.439l-1.078,10.066c0,0-13.271,0.081-22.593-3.176
						c-1.906-0.666-2.732-2.93-1.673-4.649c1.658-2.69,4.78-5.547,9.798-2.181c0,0,2.592,1.053,4.709-1.509
						C398.206,387.99,404.287,392.204,409.042,389.439z"/>
					<path style="fill:#6538A5;" d="M420.017,329.885c0,0-4.873,27.826-5.647,49.65c0,0-10.776,4.922-19.081-1.347
						c0,0,1.786-21.38,7.291-51.063L420.017,329.885z"/>
					<path style="fill:#6538A5;" d="M427.471,299.286c0,0-3.603,11.859-7.454,30.599c-0.874,4.253-4.666,7.335-9.003,7.145
						c-0.073-0.003-0.146-0.007-0.219-0.011c-5.057-0.275-8.783-4.863-8.214-9.895c0.998-8.825,1.9-15.632,3.616-21.573
						c0,0-6.568-5.166-8.785-12.066l31.373,1.022C428.785,294.509,428.509,296.344,427.471,299.286z"/>
				</g>
			</g>
			<g>
				<g>
					<path style="fill:#EBA9B5;" d="M407.482,251.539c-3.848-0.961-8.103,0.078-11.212,2.839c-2.473,2.201-4.965,4.284-7.328,6.185
						c-0.955,0.767-1.882,1.498-2.784,2.203c-1.573,1.237-3.076,2.374-4.453,3.4c-0.387,0.287-0.773,0.575-1.146,0.844
						c-0.555,0.41-1.084,0.794-1.59,1.161c-1.009,0.725-1.895,1.351-2.639,1.879c-0.922,0.649-1.458,1.549-1.643,2.506
						c-0.025,0.13-0.038,0.251-0.053,0.383c-0.011,0.112-0.022,0.223-0.024,0.337c-0.004,0.558,0.107,1.107,0.317,1.623
						c0,0-0.002,0.01,0.006,0.022c0.486,1.18,1.515,2.113,2.98,2.345l0.06,0.012c0.221,0.032,0.436,0.043,0.657,0.024
						c0.362-0.002,0.717-0.068,1.06-0.188c11.565-3.918,32.268-23.332,32.268-23.332c-0.206-0.164-0.412-0.328-0.622-0.472
						c-0.874-0.614-1.805-1.094-2.771-1.446l-0.01-0.002c-0.048-0.02-0.106-0.041-0.156-0.051c-0.164-0.063-0.339-0.117-0.507-0.16
						C407.759,251.603,407.622,251.566,407.482,251.539z"/>
					<path style="fill:#D1B619;" d="M381.458,264.779c0,0,1.97,7.878,6.171,10.373c0,0,19.784-10.373,25.648-21.008
						c0,0-2.745-5.709-11.418-4.605C401.859,249.538,388.723,258.083,381.458,264.779z"/>
					<path style="fill:#EBA9B5;" d="M355.324,246.68c3.46,2.37,6.343,6.853,6.343,6.853s12.378,11.835,18.407,15.521
						c0,0,1.07,3.981-3.302,7.854c0,0-11.384-6.845-20.529-17.571c-1.107-0.047-2.073-0.248-2.905-0.545
						c-2.914-1.022-4.912-3.644-5.609-6.645c-0.049-0.201-0.089-0.384-0.119-0.572c-0.408-2.329,0.864-4.295,2.686-5.218
						C351.813,245.599,353.704,245.574,355.324,246.68z"/>
				</g>
				<path style="fill:#F5DA23;" d="M407.107,247.235c1.421-0.277,2.969-0.467,4.636-0.52v0c0,0,0,0,0,0h0.001l0,0
					c1.667-0.053,3.224,0.037,4.66,0.223c6.388,0.828,11.222,6.183,11.428,12.621l0.961,34.939l-31.381-1.01l-0.903-32.927
					C396.303,254.122,400.785,248.469,407.107,247.235z"/>
				<g>
					<path style="fill:#FBCED1;" d="M405.994,239.383l0.244,7.635c0.062,1.943,1.691,3.471,3.634,3.409
						c1.943-0.062,3.465-1.691,3.403-3.634l-0.244-7.635L405.994,239.383z"/>
					<path style="fill:#ECA6B5;" d="M405.994,239.383l0.186,5.809c1.134,0.257,2.241,0.095,3.456,0.056
						c1.215-0.039,2.645-0.624,3.581-1.772l-0.186-4.317L405.994,239.383z"/>
				</g>
				<g>
					<path style="fill:#FF4B67;" d="M412.243,313.904l-17.461,4.815c-1.861,0.513-3.786-0.579-4.299-2.44l-7.547-27.369
						c-0.513-1.861,0.579-3.785,2.44-4.299l17.461-4.815c1.861-0.513,3.785,0.579,4.299,2.44l7.547,27.369
						C415.196,311.466,414.104,313.391,412.243,313.904z"/>
					<path style="fill:#FBCED1;" d="M421.95,258.137c-2.77,2.838-4.019,7.036-3.203,11.113c0.653,3.245,1.195,6.448,1.645,9.448
						c0.181,1.211,0.344,2.381,0.498,3.515c0.275,1.982,0.499,3.853,0.691,5.56c0.053,0.479,0.106,0.957,0.151,1.415
						c0.074,0.686,0.139,1.336,0.201,1.958c0.118,1.237,0.211,2.318,0.292,3.226c0.096,1.123,0.602,2.04,1.336,2.682
						c0.099,0.087,0.198,0.16,0.304,0.239c0.091,0.066,0.181,0.132,0.279,0.19c0.479,0.285,1.009,0.466,1.561,0.545
						c0,0,0.008,0.007,0.022,0.006c1.264,0.176,2.589-0.243,3.528-1.391l0.04-0.046c0.14-0.175,0.257-0.355,0.352-0.556
						c0.181-0.314,0.302-0.653,0.372-1.01c2.449-11.963-3.874-39.631-3.874-39.631c-0.246,0.095-0.491,0.191-0.721,0.299
						c-0.971,0.445-1.855,1.008-2.646,1.664l-0.007,0.008c-0.041,0.032-0.089,0.071-0.122,0.109
						c-0.137,0.11-0.272,0.234-0.394,0.357C422.145,257.929,422.044,258.03,421.95,258.137z"/>
					<path style="fill:#F5DA23;" d="M420.029,286.837c0,0,9.454,0.656,12.211-1.97c0,0-1.669-28.707-7.14-32.889
						c0,0-7.565,2.953-9.272,11.093C415.827,263.072,419.635,279.878,420.029,286.837z"/>
					<path style="fill:#FBCED1;" d="M391.451,300.725c3.791-1.792,9.117-2.021,9.117-2.021s16.462-4.72,22.686-8.067
						c0,0,3.977,1.084,5.116,6.812c0,0-11.652,6.378-25.526,8.866c-0.599,0.933-1.26,1.665-1.936,2.234
						c-2.352,2-5.624,2.404-8.567,1.492c-0.198-0.06-0.377-0.117-0.554-0.185c-2.217-0.822-3.273-2.912-3.151-4.95
						C388.746,303.212,389.677,301.567,391.451,300.725z"/>
				</g>
			</g>
			<g>
				<path style="fill:#FBCED1;" d="M406.47,243.456L406.47,243.456c7.761,0.017,14.067-6.26,14.084-14.021l0.038-17.107
					l-28.105-0.063l-0.038,17.107C392.432,237.133,398.709,243.438,406.47,243.456z"/>
				<path style="fill:#FBCED1;" d="M425.12,231.354l-4.57-0.01l0.02-9.14l4.57,0.01c2.524,0.006,4.565,2.056,4.56,4.58l0,0
					C429.694,229.318,427.644,231.36,425.12,231.354z"/>
				<g>
					<path style="fill:#362255;" d="M425.968,214.862l-31.177-0.07c-5.177-0.012-9.714-3.839-10.207-8.992
						c-0.262-2.734,0.576-5.856,3.747-9.013c0,0,1.23,6.496,7.679,6.51l23.302,0.052c3.69,0.008,6.675,3.006,6.667,6.697
						L425.968,214.862z"/>
					
						<rect x="420.578" y="214.856" transform="matrix(-1 -0.0022 0.0022 -1 846.0498 438.0089)" style="fill:#362255;" width="5.381" height="7.354"/>
					<circle style="fill:#362255;" cx="396.502" cy="205.824" r="12.145"/>
				</g>
				<path style="fill:#362255;" d="M418.532,214.845v10.923c0,4.642-3.415,8.571-8.011,9.224c-5.081,0.722-11.766,0.83-17.57-1.856
					c0,0-1.064,10.854,13.19,10.854c0,0,14.409,0.531,14.409-12.645l0.037-16.494L418.532,214.845z"/>
			</g>
		</g>
		<g>
			<path style="fill:#362255;" d="M301.49,73.867c0,0,0.715-0.665,2.04-1.467c8.749-5.297,20.141-1.562,24.48,7.7
				c2.109,4.502,4.363,10.807,5.458,18.697c0.877,6.324,3.149,12.391,6.934,17.533c2.402,3.263,5.357,6.445,8.634,8.199
				c4.689,2.51,8.315,6.671,9.603,11.832c0.027,0.107,0.053,0.215,0.078,0.323c1.87,7.949-3.107,15.86-10.986,18.004
				c-1.304,0.355-2.742,0.676-4.289,0.916c-7.417,1.154-14.584,3.764-20.668,8.16c-3.749,2.709-9.029,5.052-16.152,5.207
				c-7.68,0.167-14.76-4.622-16.882-12.005c-0.096-0.335-0.186-0.678-0.269-1.031c0,0-9.18,1.232-13.575-6.892
				c-1.826-3.374-2.066-7.375-0.976-11.054c0.849-2.863,2.309-6.604,4.71-9.742c1.601-2.093,3.134-4.238,4.385-6.558
				c1.166-2.162,2.472-4.909,3.541-7.997c1.747-5.048,2.156-10.46,1.284-15.73c-0.786-4.745-1.655-12.281-0.559-18.14
				c1.074-5.744,7.432-9.073,12.585-6.32C301.075,73.613,301.283,73.735,301.49,73.867z"/>
			<g>
				<g>
					<path style="fill:#452774;" d="M291.952,160.157c0,0-9.504,3.886-18.552,12.661c-1,0.97-1.648,2.259-1.779,3.646
						c-0.004,0.041-0.008,0.083-0.011,0.125c-0.401,4.685,4.631,7.905,8.755,5.646c9.242-5.064,32.243-18.223,42.926-22.079H291.952
						z"/>
					<path style="fill:#452774;" d="M272.559,180.317c0,0,15.702,21.542,27.891,28.014c0,0,5.978-1.517,5.932-7.693
						c0,0-14.52-12.679-21.21-21.841C285.172,178.798,279.015,176.898,272.559,180.317z"/>
					<path style="fill:#EBA9B5;" d="M306.025,201.654c0,0,2.599,2.616,5.159,4.234c0,0-1.606,5.135-4.493,6.295
						c0,0-3.079-1.758-5.249-4.294C301.441,207.889,305.164,206.424,306.025,201.654z"/>
					<path style="fill:#452774;" d="M311.183,205.887c0,0,3.334,2.006,5.917,3.861c1.751,1.258,2.374,3.577,1.471,5.534
						c-1.682,3.643-5.259,9.637-11.942,14.053c-1.596,1.055-3.744,0.574-4.752-1.052c-0.015-0.025-0.031-0.05-0.046-0.075
						c-0.72-1.183-0.651-2.683,0.177-3.794c1.62-2.173,4.294-6.559,4.683-12.233C306.69,212.182,309.626,210.786,311.183,205.887z"
						/>
				</g>
				<g>
					<path style="fill:#6538A5;" d="M323.292,160.157c0,0,5.011,14.441-7.128,18.793c0,0-35.325,16.813-51.144,29.381
						c0,0-5.418-1.517-5.742-7.801c0,0,26.546-25.813,53.362-40.373H323.292z"/>
					<path style="fill:#FBCED1;" d="M264.314,208.062c0,0-3.195,1.84-5.417,3.898c0,0-4.551-2.871-4.93-5.959
						c0,0,2.489-2.524,5.497-3.971C259.465,202.031,259.925,206.006,264.314,208.062z"/>
					<path style="fill:#6538A5;" d="M258.898,211.961c0,0-2.795,2.707-5.251,4.727c-1.665,1.369-4.066,1.376-5.726,0
						c-3.089-2.561-7.963-7.557-10.515-15.15c-0.609-1.813,0.406-3.766,2.237-4.323c0.028-0.008,0.056-0.017,0.085-0.025
						c1.329-0.392,2.76,0.06,3.621,1.145c1.684,2.123,5.236,5.835,10.621,7.667C253.968,206.001,254.564,209.198,258.898,211.961z"
						/>
				</g>
			</g>
			<g>
				<g>
					<path style="fill:#EBA9B5;" d="M290.365,122.174c0,0-16.307,23.955-18.427,36.23c-0.101,0.584-0.067,1.181,0.11,1.747
						l0.02,0.064c1.102,3.456,5.931,3.714,7.528,0.457c2.183-4.453,6.81-13.485,12.647-22.58c3.097-4.826,2.702-11.257-1.3-15.364
						C290.758,122.539,290.566,122.354,290.365,122.174z"/>
				</g>
				<g>
					<path style="fill:#FEFEFE;" d="M302.971,117.097c1.429-0.232,2.983-0.372,4.65-0.372v0c0,0,0,0,0,0h0.001v0
						c1.668,0,3.221,0.14,4.65,0.372c6.358,1.032,11.019,6.538,11.019,12.98v30.08h-31.339v-30.08
						C291.952,123.636,296.613,118.129,302.971,117.097z"/>
					<ellipse style="fill:#FEFEFE;" cx="304.731" cy="131.57" rx="18.061" ry="15.467"/>
				</g>
				<g>
					<g>
						<path style="fill:#FBCED1;" d="M304.1,108.045v7.639c0,1.944,1.58,3.523,3.524,3.523c1.944,0,3.517-1.58,3.517-3.523v-7.639
							H304.1z"/>
						<path style="fill:#EBA9B5;" d="M304.1,108.045v5.812c1.125,0.293,2.308,0.449,3.524,0.449c1.216,0,2.392-0.156,3.517-0.442
							v-5.818H304.1z"/>
					</g>
					<path style="fill:#FBCED1;" d="M293.57,91.557v6.418c0,6.544,4.471,12.048,10.527,13.614c1.122,0.29,2.308,0.443,3.521,0.443
						c1.213,0,2.399-0.154,3.521-0.443c6.065-1.566,10.536-7.069,10.536-13.614v-5.177c0,0-17.47-1.928-21.769-10.753
						C299.906,82.044,299.563,87.366,293.57,91.557z"/>
				</g>
				<g>
					<path style="fill:#FBCED1;" d="M316.186,124.297c-0.213,3.96,1.615,7.941,4.915,10.469c2.63,2.011,5.148,4.062,7.464,6.022
						c0.934,0.792,1.828,1.564,2.691,2.315c1.513,1.31,2.914,2.569,4.184,3.727c0.355,0.325,0.711,0.65,1.046,0.965
						c0.508,0.467,0.985,0.914,1.442,1.34c0.904,0.853,1.686,1.604,2.346,2.234c0.812,0.782,1.797,1.137,2.772,1.137
						c0.132,0,0.254-0.01,0.386-0.02c0.112-0.01,0.223-0.02,0.335-0.041c0.548-0.102,1.066-0.315,1.533-0.619c0,0,0.01,0,0.02-0.01
						c1.066-0.701,1.787-1.889,1.736-3.371v-0.061c-0.01-0.223-0.041-0.437-0.101-0.65c-0.071-0.355-0.203-0.691-0.386-1.005
						c-6.042-10.611-29.031-27.254-29.031-27.254c-0.122,0.234-0.244,0.467-0.345,0.701c-0.437,0.975-0.731,1.98-0.894,2.996v0.01
						c-0.01,0.051-0.02,0.112-0.02,0.162c-0.031,0.173-0.051,0.355-0.061,0.528C316.196,124.013,316.186,124.155,316.186,124.297z"
						/>
					<path style="fill:#FBCED1;" d="M307.544,150.278c4.003-1.249,9.309-0.737,9.309-0.737s16.958-2.392,23.585-4.842
						c0,0,3.788,1.625,4.122,7.456c0,0-12.424,4.7-26.509,5.24c-0.722,0.841-1.478,1.475-2.227,1.944
						c-2.607,1.655-5.903,1.6-8.691,0.289c-0.188-0.087-0.357-0.169-0.523-0.26c-2.081-1.122-2.838-3.338-2.434-5.34
						C304.52,152.366,305.671,150.866,307.544,150.278z"/>
				</g>
				<g>
					<g>
						<path style="fill:#CB3D60;" d="M315.367,160.541h-39.609c-1.039,0-1.881,0.842-1.881,1.881l0,0
							c0,1.039,0.842,1.881,1.881,1.881h39.609c1.039,0,1.881-0.842,1.881-1.881l0,0
							C317.247,161.383,316.405,160.541,315.367,160.541z"/>
						<path style="fill:#FF4B67;" d="M264.414,146.573l4.841,15.909c0.329,1.082,1.327,1.821,2.457,1.821h32.591l-5.818-19.121
							c-0.306-1.007-1.235-1.695-2.287-1.695h-29.497C265.096,143.486,263.947,145.037,264.414,146.573z"/>
					</g>
				</g>
				<path style="fill:#EBA9B5;" d="M271.588,162.947c0,2.958,3.141,5.356,7.015,5.356s7.015-2.398,7.015-5.356
					c0-2.958-3.141-5.355-7.015-5.355S271.588,159.99,271.588,162.947z"/>
			</g>
		</g>
	</g>
</g>
</svg>
